<?xml version="1.0" encoding="iso-8859-1"?>
<!-- Generator: Adobe Illustrator 17.1.0, SVG Export Plug-In . SVG Version: 6.00 Build 0)  -->
<!DOCTYPE svg PUBLIC "-//W3C//DTD SVG 1.1//EN" "http://www.w3.org/Graphics/SVG/1.1/DTD/svg11.dtd">
<svg xmlns="http://www.w3.org/2000/svg" xmlns:xlink="http://www.w3.org/1999/xlink" version="1.1" id="Capa_1" x="0px" y="0px" viewBox="0 0 511 511" style="enable-background:new 0 0 511 511;" xml:space="preserve" width="512px" height="512px">
<g>
	<path d="M471.5,56H423V31.5c0-4.142-3.358-7.5-7.5-7.5s-7.5,3.358-7.5,7.5V56h-65V31.5c0-4.142-3.358-7.5-7.5-7.5   s-7.5,3.358-7.5,7.5V56h-65V31.5c0-4.142-3.358-7.5-7.5-7.5s-7.5,3.358-7.5,7.5V56h-65V31.5c0-4.142-3.358-7.5-7.5-7.5   s-7.5,3.358-7.5,7.5V56h-65V31.5c0-4.142-3.358-7.5-7.5-7.5S88,27.358,88,31.5V56H39.5C17.72,56,0,73.72,0,95.5v352   C0,469.28,17.72,487,39.5,487h432c21.78,0,39.5-17.72,39.5-39.5v-352C511,73.72,493.28,56,471.5,56z M496,447.5   c0,13.509-10.991,24.5-24.5,24.5h-432C25.991,472,15,461.009,15,447.5v-352C15,81.991,25.991,71,39.5,71H88v24.5   c0,4.142,3.358,7.5,7.5,7.5s7.5-3.358,7.5-7.5V71h65v24.5c0,4.142,3.358,7.5,7.5,7.5s7.5-3.358,7.5-7.5V71h65v24.5   c0,4.142,3.358,7.5,7.5,7.5s7.5-3.358,7.5-7.5V71h65v24.5c0,4.142,3.358,7.5,7.5,7.5s7.5-3.358,7.5-7.5V71h65v24.5   c0,4.142,3.358,7.5,7.5,7.5s7.5-3.358,7.5-7.5V71h48.5c13.509,0,24.5,10.991,24.5,24.5V447.5z" fill="#f9a825"/>
	<path d="M471.5,136h-432c-4.142,0-7.5,3.358-7.5,7.5s3.358,7.5,7.5,7.5h432c4.142,0,7.5-3.358,7.5-7.5S475.642,136,471.5,136z" fill="#f9a825"/>
	<path d="M386.197,226.197L229.51,382.883c-3.314,3.313-8.706,3.313-12.021,0l-76.687-76.687c-2.929-2.929-7.678-2.929-10.606,0   c-2.929,2.929-2.929,7.678,0,10.606l76.687,76.687c4.438,4.438,10.339,6.883,16.617,6.883s12.178-2.444,16.617-6.883   l156.687-156.687c2.929-2.929,2.929-7.678,0-10.606C393.875,223.268,389.125,223.268,386.197,226.197z" fill="#f9a825"/>
</g>
<g>
</g>
<g>
</g>
<g>
</g>
<g>
</g>
<g>
</g>
<g>
</g>
<g>
</g>
<g>
</g>
<g>
</g>
<g>
</g>
<g>
</g>
<g>
</g>
<g>
</g>
<g>
</g>
<g>
</g>
</svg>
