<?xml version="1.0" standalone="no"?>
<!DOCTYPE svg PUBLIC "-//W3C//DTD SVG 20010904//EN"
 "http://www.w3.org/TR/2001/REC-SVG-20010904/DTD/svg10.dtd">
<svg version="1.0" xmlns="http://www.w3.org/2000/svg"
 width="300.000000pt" height="300.000000pt" viewBox="0 0 300.000000 300.000000"
 preserveAspectRatio="xMidYMid meet">
<metadata>
Created by potrace 1.11, written by Peter Selinger 2001-2013
</metadata>
<g transform="translate(0.000000,300.000000) scale(0.100000,-0.100000)"
fill="#000000" stroke="none">
<path d="M0 1500 l0 -1500 1500 0 1500 0 0 1500 0 1500 -1500 0 -1500 0 0
-1500z m2081 755 c353 -217 645 -395 649 -395 4 0 33 11 65 25 32 14 59 25 60
23 2 -2 -7 -27 -18 -57 l-22 -53 -683 -316 -682 -316 0 -368 0 -368 -40 0 -40
0 0 350 0 350 -50 -25 -50 -25 0 -325 0 -325 -40 0 -40 0 0 305 c0 168 -3 305
-7 305 -5 0 -165 -74 -358 -163 l-350 -163 -3 -142 -3 -142 -44 0 -44 0 -3
119 -3 119 -62 -28 -61 -28 -32 27 -31 26 95 318 c52 175 100 325 106 333 17
19 44 18 63 -3 8 -10 70 -92 137 -183 67 -91 125 -166 129 -168 5 -2 11 5 13
15 50 179 463 1552 470 1561 17 20 40 14 98 -23 30 -19 58 -35 63 -35 4 0 7
33 7 73 0 78 9 97 47 97 13 0 305 -174 664 -395z m-1323 29 c46 -19 98 -68
122 -114 40 -80 36 -160 -14 -242 -100 -165 -357 -142 -432 38 -18 43 -18 145
0 188 20 48 71 101 119 125 51 26 150 28 205 5z"/>
<path d="M1452 2479 l3 -63 420 -258 c231 -142 472 -289 536 -328 l117 -71 46
23 c25 12 45 26 43 31 -1 5 -259 167 -572 361 -314 193 -576 355 -583 360 -10
6 -12 -6 -10 -55z"/>
<path d="M1270 1805 c0 -498 3 -626 13 -622 6 2 29 10 50 18 l37 13 0 581 0
580 -50 28 -50 28 0 -626z"/>
<path d="M1450 1791 c0 -440 2 -529 13 -525 74 28 949 442 950 449 2 7 -830
531 -945 596 -17 9 -18 -18 -18 -520z"/>
<path d="M1182 2210 c-9 -15 -370 -1236 -366 -1239 4 -4 354 156 367 168 4 4
6 248 4 542 -1 294 -3 532 -5 529z"/>
<path d="M470 970 c0 -88 2 -160 4 -160 17 0 177 82 174 89 -6 18 -163 230
-170 230 -5 1 -8 -71 -8 -159z"/>
<path d="M340 958 c-18 -57 -40 -132 -51 -167 -11 -35 -17 -66 -15 -68 2 -3
27 5 55 18 l51 21 0 149 c0 82 -2 149 -5 149 -2 0 -18 -46 -35 -102z"/>
</g>
</svg>
